<svg width="116" height="102" viewBox="0 0 116 102" fill="none" xmlns="http://www.w3.org/2000/svg">
    <path
        d="M57.2984 92.0498C61.2675 92.0498 65.1205 92.098 68.7984 92.1885V96.0498H83.2984V92.8184C95.6667 93.6271 103.798 94.9966 103.798 96.5498C103.798 99.0351 82.9797 101.05 57.2984 101.05C31.6172 101.05 10.7984 99.0351 10.7984 96.5498C10.7984 94.9551 19.3703 93.5552 32.2984 92.7559V96.0498H46.7984V92.1661C50.1727 92.0907 53.6875 92.0498 57.2984 92.0498Z"
        fill="#CFCFCF" />
    <path
        d="M64.4515 1.90505C66.1266 3.31991 67.2172 5.2353 67.5195 7.41598C67.5479 7.88816 67.5546 8.36033 67.5596 8.83418C67.5613 8.96765 67.563 9.10113 67.563 9.23961C67.5663 9.51991 67.568 9.80188 67.5696 10.0822C67.5713 10.3692 67.5747 10.6561 67.5797 10.9431C67.5863 11.3602 67.5897 11.7757 67.5914 12.1928C67.593 12.3196 67.5964 12.4481 67.5997 12.5782C67.598 13.1789 67.5763 13.5976 67.2022 14.0832C66.7112 14.5603 66.4557 14.6104 65.7909 14.6054C65.6623 14.6054 65.5354 14.6054 65.4035 14.6054C65.2398 14.6037 65.0778 14.6021 64.9108 14.6004C64.393 14.597 63.8769 14.5937 63.3441 14.5904C63.3441 16.077 63.3441 17.5636 63.3441 19.0952C64.0606 19.1503 64.7771 19.2053 65.5154 19.2621C66.2268 19.4156 66.9149 19.5774 67.6131 19.7726C67.7066 19.7976 67.8001 19.8243 67.8953 19.8494C69.7208 20.3532 71.4661 21.0023 73.1981 21.7648C73.32 21.8165 73.4402 21.8682 73.5655 21.9216C76.9225 23.3632 79.857 25.4587 82.6562 27.7796C82.91 27.9881 83.1706 28.1883 83.4378 28.3769C83.4846 28.4153 83.4846 28.4153 83.72 28.6055C83.72 28.7156 83.72 28.8257 83.72 28.9392C83.8203 28.9842 83.9188 29.0293 84.0207 29.0743C85.133 29.6716 85.918 30.8612 86.6913 31.8339C87.0721 32.2894 87.4696 32.6965 87.8954 33.1103C88.4466 32.7249 88.9977 32.3395 89.5656 31.9424C89.5038 31.6154 89.442 31.2884 89.3785 30.9513C89.1614 29.6232 89.2883 28.6689 89.9831 27.5093C90.6061 26.6484 91.3844 26.0527 92.2378 25.4354C92.3548 25.3503 92.4717 25.2635 92.5919 25.1768C93.4704 24.5327 94.3539 23.8937 95.2441 23.2664C95.341 23.1963 95.4379 23.1262 95.5381 23.0545C96.2329 22.569 96.5819 22.4922 97.4153 22.599C98.1151 22.901 98.4074 23.2614 98.7514 23.9338C99.2976 23.8303 99.6416 23.6418 100.084 23.3114C100.209 23.218 100.333 23.1262 100.463 23.0311C100.594 22.9327 100.726 22.8342 100.861 22.7341C103.759 20.6152 103.759 20.6152 104.649 20.5651C105.215 20.8154 105.586 21.084 105.933 21.5979C106.139 22.2019 106.144 22.4839 105.916 23.0812C105.589 23.6968 105.118 24.0155 104.545 24.3926C104.336 24.5344 104.128 24.6779 103.919 24.8214C103.812 24.8931 103.703 24.9665 103.593 25.0416C103.037 25.4204 102.493 25.8141 101.946 26.2062C101.748 26.348 101.551 26.4899 101.352 26.63C101.21 26.7318 101.07 26.8319 100.923 26.937C101.774 28.3001 102.671 29.6249 103.595 30.9413C104.236 30.6543 104.774 30.2556 105.339 29.8451C105.547 29.6966 105.756 29.5481 105.963 29.398C106.379 29.0993 106.792 28.799 107.202 28.4953C107.391 28.3585 107.582 28.22 107.77 28.0832C107.857 28.0182 107.942 27.9531 108.031 27.8864C108.629 27.4592 109.045 27.3358 109.774 27.4375C110.085 27.6077 110.085 27.6077 110.327 27.833C110.409 27.9064 110.493 27.9798 110.576 28.0565C110.888 28.3919 110.944 28.6055 110.995 29.0643C110.919 29.8685 110.564 30.3607 109.963 30.8746C109.589 31.1565 109.21 31.4252 108.824 31.6921C108.697 31.7822 108.569 31.8723 108.438 31.9657C107.558 32.5864 106.665 33.1854 105.766 33.7777C105.831 33.8811 105.895 33.9846 105.96 34.0897C106.469 34.9223 106.735 35.4729 106.601 36.4472C106.376 37.0345 106.085 37.2931 105.569 37.6435C105.499 37.6919 105.499 37.6919 105.143 37.9355C105.07 37.9856 105.07 37.9856 104.691 38.2408C104.385 38.4494 104.079 38.658 103.774 38.8682C103.627 38.9683 103.48 39.0684 103.328 39.1718C102.845 39.5072 102.381 39.8626 101.915 40.2213C100.853 40.9971 99.6016 41.5878 98.2571 41.506C97.0329 41.3125 96.136 40.9855 95.2441 40.1179C94.4992 40.3498 93.9698 40.7652 93.3685 41.2457C93.0729 41.4526 93.0729 41.4526 92.7389 41.4526C92.769 41.5294 92.799 41.6061 92.8307 41.6845C94.9368 47.0954 95.8103 52.5179 95.7452 58.3041C96.4066 58.4142 97.0679 58.5243 97.7494 58.6378C97.9147 58.4109 98.08 58.1823 98.2504 57.9487C99.0905 56.8742 100.036 55.9983 101.424 55.8014C102.852 55.708 104.231 55.9049 105.637 56.1301C105.998 56.1868 106.361 56.2402 106.721 56.2953C106.955 56.3303 107.187 56.367 107.42 56.4037C107.526 56.4187 107.633 56.4354 107.744 56.4521C108.567 56.5873 109.158 56.8492 109.744 57.4448C110.002 57.9103 109.977 58.1723 109.921 58.6995C109.901 58.8881 109.883 59.0749 109.863 59.2685C109.684 60.73 109.482 62.1866 109.273 63.6432C109.425 63.6649 109.577 63.6866 109.733 63.7083C110.299 63.79 110.865 63.8768 111.431 63.9619C111.675 63.9986 111.919 64.0353 112.163 64.0703C112.517 64.1204 112.868 64.1754 113.22 64.2288C113.329 64.2438 113.437 64.2588 113.547 64.2739C114.331 64.4007 114.833 64.6459 115.453 65.1448C115.643 65.7137 115.717 66.221 115.62 66.8133C115.321 67.2721 115.111 67.5674 114.618 67.8143C113.434 67.8794 112.308 67.6859 111.142 67.4907C110.954 67.4606 110.765 67.4306 110.569 67.3989C109.18 67.1703 109.18 67.1703 108.605 66.9801C108.584 67.142 108.56 67.3038 108.537 67.4723C108.452 68.0763 108.365 68.6819 108.276 69.2859C108.238 69.5479 108.201 69.8082 108.164 70.0701C108.113 70.4472 108.058 70.8226 108.002 71.1997C107.994 71.258 107.994 71.258 107.954 71.5517C107.85 72.2391 107.707 72.7563 107.269 73.3203C106.042 74.1478 104.059 73.5639 102.685 73.3436C102.344 73.2886 102.002 73.2385 101.659 73.1885C100.143 72.9565 98.4976 72.6195 97.4304 71.4132C96.6921 70.3504 96.4132 69.6346 96.4132 68.3149C95.5865 68.2598 94.7598 68.2048 93.908 68.148C93.8579 68.2798 93.8579 68.2798 93.6024 68.9489C91.9907 73.1017 89.9898 76.9292 87.0604 80.3278C86.9501 80.4546 86.8416 80.5831 86.728 80.7149C85.6173 81.9779 84.4165 83.1525 83.219 84.3321C83.4311 84.9094 83.6783 85.3833 84.034 85.8855C84.8107 87.0234 85.4052 88.0661 85.4169 89.4676C85.4186 89.6245 85.4203 89.783 85.4219 89.9448C85.4219 90.0299 85.4219 90.0299 85.4236 90.457C85.4253 90.6322 85.4269 90.8074 85.4269 90.9876C85.4286 91.3563 85.4303 91.7267 85.4303 92.0955C85.432 92.6611 85.437 93.225 85.442 93.7906C85.4436 94.1494 85.4453 94.5097 85.4453 94.8685C85.447 95.037 85.4487 95.2055 85.452 95.3807C85.447 96.909 85.447 96.909 84.8892 97.513C84.0574 98.0302 83.396 98.0853 82.4273 98.0752C82.2837 98.0752 82.1417 98.0769 81.9931 98.0769C81.5221 98.0786 81.0511 98.0769 80.5785 98.0736C80.2495 98.0736 79.9204 98.0736 79.5914 98.0736C78.9033 98.0736 78.2135 98.0719 77.5254 98.0686C76.6436 98.0652 75.7618 98.0652 74.8816 98.0669C74.2018 98.0669 73.5221 98.0652 72.844 98.0636C72.5183 98.0636 72.1943 98.0636 71.8686 98.0636C71.4143 98.0636 70.9584 98.0619 70.5041 98.0586C70.4373 98.0586 70.4373 98.0586 70.0999 98.0602C69.1296 98.0502 68.241 97.9801 67.4494 97.3645C67.0385 96.5536 67.1154 95.7694 67.1438 94.8735C67.1471 94.6949 67.1504 94.5164 67.1538 94.3312C67.1605 93.8891 67.1721 93.4486 67.1855 93.0081C67.0619 93.0315 66.9367 93.0565 66.8081 93.0815C66.3404 93.1733 65.8728 93.2634 65.4035 93.3552C65.203 93.3935 65.0009 93.4336 64.7989 93.4736C64.5082 93.5304 64.216 93.5871 63.9237 93.6438C63.7483 93.6772 63.5746 93.7105 63.3943 93.7456C62.2719 93.9408 61.183 94.0359 60.0439 94.0426C59.9754 94.0426 59.9754 94.0426 59.6314 94.0459C59.1921 94.0492 58.7529 94.0509 58.3136 94.0509C58.1633 94.0509 58.013 94.0509 57.8594 94.0509C55.5846 94.0509 53.3883 93.9558 51.152 93.5087C51.0902 93.497 51.0902 93.497 50.7779 93.4353C50.1199 93.3051 49.4668 93.165 48.8138 93.0081C48.8121 93.0615 48.8121 93.0615 48.8071 93.3318C48.7938 93.8173 48.7787 94.3045 48.762 94.79C48.7587 94.9586 48.7537 95.1271 48.7503 95.3006C48.6919 96.924 48.6919 96.924 48.1457 97.513C47.3056 98.0369 46.6276 98.0853 45.6505 98.0786C45.5035 98.0786 45.3566 98.0803 45.2063 98.0803C44.7236 98.0819 44.2392 98.0819 43.7566 98.0803C43.4192 98.0803 43.0835 98.0803 42.7461 98.0803C42.0396 98.0819 41.3348 98.0803 40.63 98.0786C39.7265 98.0752 38.8229 98.0769 37.921 98.0803C37.2246 98.0819 36.5298 98.0819 35.835 98.0803C35.501 98.0803 35.1686 98.0803 34.8346 98.0819C34.3703 98.0819 33.9043 98.0803 33.4383 98.0786C33.3014 98.0786 33.1644 98.0803 33.0241 98.0803C32.0354 98.0702 31.354 97.9301 30.6358 97.1976C30.407 96.7805 30.3736 96.5052 30.3636 96.0314C30.3602 95.8695 30.3552 95.7077 30.3519 95.5409C30.3502 95.3657 30.3486 95.1921 30.3469 95.0119C30.3435 94.8301 30.3419 94.6499 30.3385 94.4614C30.3352 94.0759 30.3319 93.6922 30.3319 93.3051C30.3285 92.7245 30.3135 92.1439 30.3001 91.5632C30.265 88.6084 30.898 86.8448 32.6133 84.499C32.5064 84.3922 32.3995 84.2854 32.2893 84.1753C32.2141 84.0985 32.1373 84.0235 32.0588 83.945C31.85 83.7365 31.6396 83.5279 31.4291 83.321C27.197 79.1432 23.698 73.8525 21.9243 68.148C21.9243 68.0379 21.9243 67.9278 21.9243 67.8143C21.8475 67.8327 21.8475 67.8327 21.4617 67.9228C21.2612 67.9695 21.0608 68.0179 20.8604 68.0646C20.7585 68.088 20.6583 68.1113 20.5548 68.1364C19.7915 68.3149 19.7915 68.3149 19.4191 68.3149C19.4157 68.395 19.4107 68.4767 19.4057 68.5601C19.2905 69.9266 18.7109 71.1262 17.6654 72.0372C16.5965 72.8131 15.3455 72.9515 14.0746 73.1534C13.794 73.2001 13.5151 73.2469 13.2345 73.2952C9.7071 73.8725 9.7071 73.8725 8.89707 73.654C8.10876 73.085 7.93673 72.5578 7.76804 71.6184C7.75635 71.5434 7.75635 71.5434 7.69623 71.1613C7.66951 71.0061 7.64279 70.8509 7.61607 70.6924C7.53757 70.2336 7.46408 69.7748 7.39393 69.316C7.37389 69.1858 7.35385 69.0573 7.33381 68.9239C7.23527 68.2765 7.14341 67.6291 7.0599 66.9801C6.91627 67.0118 6.77263 67.0435 6.62566 67.0769C1.73043 68.1614 1.73043 68.1614 0.776776 67.6759C0.446085 67.4239 0.230634 67.1837 0.0452465 66.8133C-0.0349209 66.1142 -0.0549632 65.687 0.389298 65.1231C0.900366 64.5458 1.38972 64.4457 2.13294 64.3523C2.24985 64.3339 2.36676 64.3156 2.48701 64.2972C2.72585 64.2605 2.96468 64.2255 3.20518 64.1921C3.53086 64.1471 3.85654 64.0937 4.18055 64.0403C4.9839 63.9068 5.74382 63.8017 6.55885 63.81C6.54549 63.7366 6.54549 63.7366 6.48036 63.3712C6.38182 62.829 6.28662 62.2867 6.19309 61.7445C6.15134 61.5109 6.11125 61.2773 6.06783 61.0437C5.51835 58.0071 5.51835 58.0071 6.16804 57.0678C6.64236 56.7458 7.07827 56.6323 7.63443 56.5405C7.74132 56.5222 7.84821 56.5022 7.95845 56.4838C8.32588 56.4187 8.69498 56.3603 9.06409 56.3019C9.20605 56.2786 9.34802 56.2552 9.49499 56.2319C14.3485 55.4527 14.3485 55.4527 15.7447 56.3019C16.6382 56.9944 17.3263 57.6551 17.9159 58.6378C18.5773 58.5277 19.2387 58.4176 19.9201 58.3041C19.9268 58.1489 19.9335 57.9954 19.9401 57.8369C20.189 52.2009 20.9088 46.9319 22.9264 41.6195C22.2099 41.1239 21.4934 40.6284 20.7552 40.1179C20.3961 40.2964 20.037 40.4766 19.6796 40.6601C19.5393 40.7318 19.3973 40.8036 19.252 40.8787C19.1819 40.9154 19.1819 40.9154 18.8245 41.0989C18.2282 41.3725 17.7021 41.4793 17.0491 41.4943C16.9923 41.496 16.9923 41.496 16.6984 41.5077C15.4123 41.3508 14.4203 40.8053 13.3965 40.0444C13.2762 39.956 13.156 39.8693 13.0324 39.7792C12.7819 39.5956 12.533 39.4121 12.2825 39.2269C11.905 38.9516 11.5226 38.6846 11.1384 38.4194C10.8946 38.2492 10.6524 38.0773 10.4102 37.9071C10.2967 37.8304 10.1831 37.7536 10.0662 37.6752C9.37641 37.1764 9.06075 36.7709 8.9121 35.9217C8.89206 35.5012 8.9739 35.2426 9.18935 34.8822C9.25114 34.7754 9.31127 34.667 9.37474 34.5552C9.56514 34.2782 9.56513 34.2782 9.89917 33.9445C9.59353 33.7076 9.28789 33.4707 8.98058 33.2354C8.88538 33.162 8.79018 33.0886 8.69165 33.0119C8.13214 32.5814 7.5693 32.156 7.00144 31.7372C6.94132 31.6921 6.94132 31.6921 6.63568 31.4669C6.40019 31.2917 6.16303 31.1182 5.92586 30.9446C5.87075 30.9046 5.87075 30.9046 5.59684 30.7011C5.54841 30.666 5.54841 30.666 5.30456 30.4875C4.82857 30.0787 4.72836 29.8468 4.66991 29.2094C4.68828 28.6138 4.84527 28.2434 5.22273 27.7712C5.64361 27.4292 5.98098 27.4158 6.50374 27.4559C7.34717 27.5727 7.86492 27.9931 8.51127 28.522C8.74342 28.7039 8.97557 28.8858 9.20772 29.066C9.26451 29.111 9.26451 29.111 9.55511 29.3413C10.0745 29.7417 10.6107 30.1138 11.1518 30.4825C11.1985 30.5142 11.1985 30.5142 11.434 30.676C11.6461 30.8195 11.8583 30.9647 12.0704 31.1082C12.0871 31.0531 12.0871 31.0531 12.1739 30.7811C12.4996 30.0654 12.9555 29.4664 13.4165 28.834C13.6002 28.5821 13.7839 28.3302 13.966 28.0766C14.0462 27.9664 14.128 27.8547 14.2115 27.7412C14.4086 27.4375 14.4086 27.4375 14.5756 26.937C13.3581 25.9793 12.1338 25.065 10.8278 24.2324C10.305 23.867 9.85407 23.5083 9.56513 22.9327C9.47996 22.3754 9.43152 21.8332 9.71712 21.331C10.0712 20.9422 10.3768 20.772 10.8695 20.5852C12.1088 20.6102 13.1359 21.5212 14.0746 22.2536C14.938 22.9243 15.8098 23.5383 16.7468 24.1006C16.8036 24.0139 16.862 23.9271 16.9205 23.8387C17.642 22.7642 17.642 22.7642 18.2499 22.599C18.9347 22.4705 19.3255 22.604 19.8884 22.9744C20.0921 23.1196 20.2959 23.2647 20.4963 23.4132C20.8019 23.6334 21.1126 23.847 21.4249 24.0589C25.6688 26.9737 25.6688 26.9737 26.2149 29.1244C26.3719 30.0804 26.27 30.9947 26.0997 31.9424C26.3702 32.1326 26.6425 32.3245 26.9147 32.5147C27.065 32.6215 27.217 32.7282 27.3723 32.8384C27.7698 33.1103 27.7698 33.1103 28.1039 33.2772C28.1406 33.1887 28.1757 33.102 28.2141 33.0119C28.5281 32.4496 28.9356 31.9891 29.3565 31.5036C29.4016 31.4519 29.4016 31.4519 29.627 31.1916C35.3657 24.6178 43.8117 20.0112 52.4881 18.9284C52.433 17.5519 52.3779 16.1754 52.3211 14.7572C50.7862 14.7255 50.7862 14.7255 50.3086 14.7222C49.6906 14.6988 49.1395 14.6788 48.6384 14.2901C47.7332 13.1739 48.124 11.0282 48.1674 9.65506C48.1775 9.34473 48.1825 9.03606 48.1875 8.7274C48.2476 6.23972 48.9858 4.3043 50.7027 2.45231C53.998 -0.662714 60.8807 -0.771164 64.4515 1.90505ZM52.4213 5.38213C51.1553 7.25581 51.486 9.12949 51.486 11.4203C55.6748 11.4203 59.8635 11.4203 64.1792 11.4203C64.1792 6.42825 64.1792 6.42825 62.8114 4.76646C61.4903 3.56851 59.9554 3.47007 58.2585 3.49176C57.9161 3.4951 57.5754 3.49176 57.233 3.48675C55.3575 3.48342 53.6272 3.82211 52.4213 5.38213ZM55.6614 14.7572C55.6464 15.0425 55.6431 15.3278 55.6447 15.6131C55.6464 15.7683 55.6464 15.9235 55.6464 16.0836C55.6481 16.2822 55.6497 16.4807 55.6514 16.686C55.6548 17.315 55.6581 17.9457 55.6614 18.5947C57.0944 18.5947 58.5274 18.5947 60.0038 18.5947C60.0038 17.2733 60.0038 15.9518 60.0038 14.5904C59.4126 14.5854 58.8214 14.582 58.2285 14.5804C58.028 14.5804 57.826 14.5787 57.6255 14.577C57.3366 14.5754 57.0477 14.5737 56.7587 14.5737C56.585 14.572 56.4097 14.572 56.231 14.5704C55.8284 14.5904 55.8284 14.5904 55.6614 14.7572ZM36.2876 29.7734C36.2459 29.8084 36.2459 29.8084 36.0371 29.9903C35.4375 30.5142 34.858 31.0581 34.2834 31.6087C34.1849 31.7005 34.0864 31.7939 33.9861 31.889C32.493 33.3039 31.182 34.7738 30.0012 36.4589C29.7874 36.7609 29.5686 37.0596 29.3498 37.3582C26.24 41.6845 24.3644 47.2038 23.7615 52.4645C23.7431 52.6263 23.7247 52.7882 23.7063 52.9533C22.8663 61.8396 25.4901 70.6974 31.1252 77.6332C31.4926 78.0771 31.8701 78.5109 32.2542 78.943C32.4296 79.1415 32.6016 79.3434 32.7719 79.547C33.4383 80.3345 34.1632 80.9985 34.9515 81.6626C35.1035 81.7961 35.2555 81.9312 35.4075 82.0664C42.3503 88.1863 51.3257 91.0026 60.5049 90.5054C61.7425 90.412 62.96 90.2351 64.1792 90.0049C64.241 89.9932 64.241 89.9932 64.5567 89.9348C69.512 88.9721 74.3939 86.7581 78.3755 83.6647C78.5158 83.5563 78.6561 83.4495 78.7998 83.3377C79.8119 82.5452 80.7789 81.7076 81.7159 80.8284C81.7576 80.79 81.7576 80.79 81.9664 80.5948C84.2862 78.4191 86.1368 75.8997 87.7284 73.1534C87.7936 73.0416 87.857 72.9315 87.9238 72.8164C89.0261 70.8977 89.8428 68.9005 90.5677 66.8133C90.6094 66.6931 90.6529 66.5747 90.6963 66.4512C92.4733 61.3274 92.7355 55.084 91.5698 49.7949C91.5247 49.563 91.4796 49.3328 91.4345 49.1025C89.6307 40.2914 84.0708 32.6598 76.672 27.6728C71.2824 24.1423 65.0878 22.3053 58.6677 22.0985C58.5057 22.0918 58.342 22.0834 58.175 22.0768C50.4004 21.8999 42.1716 24.6545 36.2876 29.7734ZM19.085 26.4365C19.0199 26.5366 18.9547 26.6367 18.8863 26.7385C18.0428 28.0182 17.1694 29.2762 16.2925 30.5325C15.1535 32.1626 14.0261 33.8027 12.9054 35.4462C13.495 36.0868 14.1681 36.5674 14.8779 37.0612C14.9931 37.1447 15.1084 37.2281 15.2253 37.3132C15.9585 37.8237 16.508 38.1541 17.4149 38.1157C18.4203 37.5117 18.9831 36.5223 19.6178 35.5596C19.7264 35.3961 19.8366 35.2326 19.9468 35.0691C20.1673 34.7404 20.3861 34.4117 20.6065 34.0814C21.1343 33.2938 21.6771 32.513 22.2182 31.7338C22.2884 31.6321 22.3585 31.5319 22.4287 31.4285C22.4587 31.3851 22.4587 31.3851 22.6124 31.1649C22.918 30.6994 22.9615 30.319 22.9982 29.765C22.7894 28.8124 21.8508 28.2668 21.0992 27.7495C20.999 27.6778 20.8971 27.6061 20.7919 27.5326C20.2358 27.1439 19.6729 26.7768 19.085 26.4365ZM95.5113 26.9754C95.4045 27.0538 95.2959 27.1339 95.1857 27.214C95.0738 27.2991 94.9619 27.3825 94.8483 27.4676C94.7381 27.5493 94.6278 27.6294 94.5143 27.7128C92.8775 28.9241 92.8775 28.9241 92.5301 29.7934C92.4817 30.4124 92.7422 30.7711 93.0763 31.2783C93.1013 31.3184 93.1013 31.3184 93.2333 31.5186C93.8328 32.4262 94.4541 33.3155 95.0771 34.2048C95.2475 34.4484 95.4178 34.692 95.5882 34.9339C95.7535 35.1725 95.9205 35.4095 96.0875 35.6464C96.3063 35.96 96.5218 36.2754 96.7339 36.5924C96.784 36.6675 96.784 36.6675 97.0395 37.0462C97.1281 37.1797 97.2166 37.3132 97.3084 37.4517C97.6057 37.8087 97.8145 37.9589 98.2504 38.1157C99.2608 38.094 99.8254 37.7436 100.61 37.1346C100.807 36.9862 101.008 36.836 101.207 36.6875C101.298 36.6174 101.392 36.5473 101.489 36.4756C101.843 36.2187 102.214 35.9951 102.593 35.7799C102.528 34.8872 102.02 34.3466 101.487 33.6726C100.801 32.785 100.161 31.8957 99.5732 30.9396C99.0704 30.1388 98.5093 29.3763 97.9598 28.6071C97.878 28.492 97.7961 28.3769 97.7109 28.2584C97.6324 28.1466 97.5523 28.0365 97.4704 27.9231C97.265 27.6261 97.0746 27.3241 96.8859 27.0188C96.784 26.8803 96.6838 26.7435 96.5802 26.6033C96.0291 26.6033 95.9372 26.6617 95.5113 26.9754ZM24.0955 34.7788C23.8283 35.0941 23.5744 35.4111 23.3239 35.7381C23.2504 35.8282 23.1786 35.9183 23.1034 36.0101C22.594 36.6741 22.594 36.6741 22.584 37.1447C22.8212 37.5551 23.0934 37.742 23.4909 38.0006C23.6228 38.089 23.7548 38.1774 23.8901 38.2692C24.2625 38.4494 24.2625 38.4494 24.7635 38.2825C24.994 37.9572 25.1945 37.6452 25.3899 37.3015C25.445 37.2114 25.5001 37.1213 25.5569 37.0279C25.7105 36.7609 25.7105 36.7609 25.9327 36.2804C25.7306 35.6714 25.5435 35.5863 25.0141 35.2476C24.8788 35.1592 24.7418 35.0708 24.6015 34.979C24.2625 34.7788 24.2625 34.7788 24.0955 34.7788ZM90.4641 35.3627C90.3272 35.4712 90.1902 35.5796 90.0499 35.6914C89.9447 35.7748 89.8412 35.8599 89.7326 35.9467C89.8846 36.2387 90.0382 36.5307 90.1919 36.8226C90.2771 36.9845 90.3623 37.148 90.4508 37.3148C90.7347 37.782 90.7347 37.782 91.4028 38.4494C91.9539 38.064 92.5051 37.6786 93.0729 37.2815C92.804 36.6091 92.5619 36.1419 92.1543 35.5596C92.0525 35.4128 91.9506 35.266 91.847 35.1141C91.7552 35.004 91.6633 34.8922 91.5698 34.7788C91.0704 34.7788 90.8483 35.0541 90.4641 35.3627ZM100.923 59.8057C100.742 60.2112 100.679 60.6133 100.617 61.0521C100.597 61.1705 100.577 61.2907 100.557 61.4141C100.493 61.7945 100.437 62.1766 100.38 62.5587C100.34 62.809 100.298 63.0609 100.258 63.3112C100.158 63.9202 100.064 64.5275 99.9723 65.1365C99.9222 65.4635 99.8704 65.7905 99.8187 66.1175C99.802 66.216 99.7869 66.3144 99.7702 66.4162C99.7285 66.6781 99.6867 66.9401 99.6433 67.2003C99.5648 67.8193 99.508 68.395 99.7535 68.9823C100.557 69.668 101.323 69.8065 102.352 69.9416C102.493 69.9617 102.633 69.9833 102.777 70.005C103.446 70.1001 104.086 70.1602 104.764 70.1502C105.145 68.1881 105.482 66.2226 105.803 64.2505C105.881 63.7616 105.963 63.2728 106.043 62.7839C106.093 62.4719 106.145 62.1599 106.197 61.8463C106.209 61.7745 106.209 61.7745 106.269 61.4074C106.291 61.2723 106.312 61.1372 106.336 60.997C106.354 60.8802 106.374 60.7617 106.394 60.6399C106.434 60.3029 106.441 59.9776 106.434 59.6389C101.978 58.5811 101.978 58.5811 100.923 59.8057ZM12.1054 59.0749C12.032 59.0849 12.032 59.0849 11.6612 59.14C11.5109 59.1634 11.3589 59.1867 11.2036 59.2101C11.0516 59.2334 10.8979 59.2551 10.7409 59.2785C9.60856 59.4503 9.60856 59.4503 9.2311 59.6389C9.73215 63.151 10.3084 66.6514 10.9013 70.1502C13.1543 69.97 13.1543 69.97 14.0645 69.8465C14.2382 69.8248 14.4119 69.8031 14.5906 69.7815C15.1652 69.6246 15.4808 69.386 15.9117 68.9823C16.3894 68.0296 16.0086 66.6831 15.8416 65.6787C15.8165 65.5285 15.7915 65.3767 15.7664 65.2199C15.713 64.9012 15.6612 64.5825 15.6078 64.2639C15.5259 63.7783 15.4474 63.2911 15.3689 62.8056C15.3172 62.4936 15.267 62.1833 15.2153 61.8729C15.1919 61.7278 15.1685 61.5843 15.1451 61.4341C14.9865 60.5182 14.7844 59.8341 14.0963 59.1684C13.47 58.8197 12.7919 58.9715 12.1054 59.0749ZM95.2441 61.641C95.1623 62.1366 95.1623 62.1366 94.7431 64.6443C95.0738 64.6993 95.0738 64.6993 96.7473 64.978C97.1548 64.0002 97.1782 63.0242 97.2483 61.9747C96.9176 61.9197 96.9176 61.9197 95.2441 61.641ZM19.1268 61.7962C18.9932 61.8296 18.8596 61.8613 18.7226 61.8946C18.6725 61.908 18.6725 61.908 18.417 61.9747C18.4971 63.0092 18.6391 63.9769 18.918 64.978C19.6345 64.8678 20.351 64.7577 21.0892 64.6443C20.9239 63.7083 20.7585 62.7722 20.5882 61.8079C19.9418 61.646 19.7397 61.6444 19.1268 61.7962ZM35.2855 86.668C35.0968 86.9283 34.9097 87.1885 34.7227 87.4488C34.6175 87.594 34.5122 87.7408 34.4054 87.8893C33.8492 88.7502 33.734 89.4209 33.7507 90.4203C33.7507 90.5371 33.7507 90.6539 33.7507 90.7757C33.754 91.1478 33.7573 91.5199 33.7623 91.8919C33.764 92.1455 33.7657 92.3991 33.7657 92.6527C33.7707 93.2717 33.7757 93.8907 33.7824 94.5098C35.2354 94.5131 36.6885 94.5164 38.1415 94.5181C38.8162 94.5181 39.491 94.5198 40.1657 94.5214C40.8171 94.5231 41.4684 94.5248 42.1198 94.5248C42.367 94.5248 42.6158 94.5264 42.8647 94.5264C43.2121 94.5281 43.5595 94.5281 43.9069 94.5281C43.9586 94.5281 43.9586 94.5281 44.2209 94.5298C44.934 94.5281 44.934 94.5281 45.3065 94.3429C45.3065 93.517 45.3065 92.6911 45.3065 91.8402C45.086 91.7484 44.8655 91.6583 44.6401 91.5649C41.9077 90.4237 39.3707 89.1773 36.9373 87.4838C36.8187 87.4021 36.6985 87.3203 36.5766 87.2352C36.473 87.1618 36.3678 87.0884 36.2609 87.0133C35.9369 86.8248 35.6513 86.7397 35.2855 86.668ZM79.1488 87.2936C76.834 88.9471 74.3271 90.2685 71.6949 91.3397C71.3091 91.5048 70.9233 91.67 70.5258 91.8402C70.5258 92.7212 70.5258 93.6021 70.5258 94.5098C74.3288 94.5098 78.1317 94.5098 82.0499 94.5098C82.0499 88.6701 82.0499 88.6701 80.5467 86.668C79.9138 86.668 79.6348 86.9316 79.1488 87.2936Z"
        fill="#F5F5F5" />
    <path
        d="M49.3096 44.9557C50.956 46.154 51.8832 47.4938 52.2236 49.5177C52.4717 51.7097 51.8916 53.4373 50.5419 55.1649C49.6081 56.1985 48.0656 57.0789 46.6522 57.1904C44.5095 57.2986 42.7843 57.0839 41.0842 55.6659C39.5635 54.2229 38.8124 52.65 38.7084 50.5613C38.7671 48.7022 39.4679 47.0262 40.7304 45.6647C43.0944 43.4977 46.6371 43.1582 49.3096 44.9557ZM44.7928 47.9615C44.4357 48.6539 44.3318 49.4145 44.4994 50.1785C44.8247 51.0289 45.3646 51.4484 46.1559 51.8944C46.8819 52.0792 47.5492 52.0126 48.2399 51.7163C48.8921 51.3319 49.209 50.9025 49.4572 50.1785C49.5645 49.4428 49.5796 48.7787 49.1839 48.128C48.6792 47.5038 48.1913 47.0811 47.3782 46.9513C46.1928 46.898 45.6513 47.1693 44.7928 47.9615Z"
        fill="#F5F5F5" />
    <path
        d="M78.3813 46.384C79.7253 47.7806 80.4442 49.3812 80.5012 51.3124C80.3872 51.9227 80.1308 52.3208 79.7052 52.7813C79.184 53.0232 78.7148 53.0478 78.155 52.9574C77.5082 52.6744 77.2501 52.4375 76.982 51.8059C76.9066 51.4851 76.8378 51.1627 76.7725 50.8386C76.5479 49.929 76.2815 49.3631 75.4737 48.8449C74.6459 48.4649 73.8147 48.3383 72.9466 48.6344C72.0584 49.0341 71.5288 49.5029 71.0948 50.3764C70.949 50.8189 70.949 50.8189 70.8837 51.1347C70.7412 51.8223 70.5887 52.3438 70.0357 52.8175C69.5145 53.0972 69.0034 53.1005 68.4353 52.9574C67.9795 52.658 67.6761 52.2895 67.4298 51.8059C67.2538 49.9026 67.6996 48.4699 68.8861 46.9614C69.8681 45.8938 71.0345 45.221 72.4572 44.897C72.5092 44.8838 72.5092 44.8838 72.7723 44.8197C74.7297 44.4627 76.8948 45.1174 78.3813 46.384Z"
        fill="#F5F5F5" />
    <path
        d="M55.737 56.73C56.2221 57.0099 56.682 57.3117 57.1436 57.6306C58.4256 58.4549 59.8188 58.404 61.2962 58.2564C62.1907 58.036 62.8561 57.5509 63.6024 57.0268C64.064 56.7097 64.32 56.5621 64.8759 56.4434C65.4015 56.5757 65.6728 56.7215 66.0231 57.1354C66.2725 57.5662 66.3399 57.9088 66.3045 58.4074C65.9204 59.5302 64.6468 60.1679 63.6647 60.6954C61.6314 61.6468 59.4128 61.7672 57.2514 61.1584C56.0099 60.6937 54.1568 59.8236 53.547 58.5957C53.4745 57.9393 53.4931 57.6594 53.8637 57.1014C54.4617 56.479 54.9418 56.4688 55.737 56.73Z"
        fill="#F5F5F5" />
</svg>