<svg width="792" height="155" viewBox="0 0 792 155" fill="none" xmlns="http://www.w3.org/2000/svg">
<path d="M133.048 77.0575L35.887 132.226M133.048 77.0575L35.5365 22.0905M133.048 77.0575V40.2787L68.2739 3.5L35.5365 22.0905M133.048 77.0575V113.836L68.2739 150.615L35.887 132.226M35.887 132.226L35.5365 22.0905M35.887 132.226L3.5 113.836L3.5 40.2787L35.5365 22.0905" stroke="#FF2210" stroke-width="7" stroke-linejoin="round"/>
<path d="M213.869 126.96C233.354 126.96 246.685 115.86 246.685 93.6618V91.7834H235.576V93.6618C235.576 109.201 226.859 116.373 213.869 116.373C200.709 116.373 192.163 109.03 192.163 93.6618V50.8014H241.9V40.3852H192.163V10.5024H180.711V93.6618C180.711 115.86 194.214 126.96 213.869 126.96Z" fill="white"/>
<path d="M301.332 126.96C317.74 126.96 331.755 118.934 337.738 103.907V124.74H348.334V83.0747C348.334 56.4364 329.704 38.1653 303.041 38.1653C276.378 38.1653 257.577 56.778 257.577 83.0747C257.577 110.055 277.575 126.96 301.332 126.96ZM303.041 116.373C282.873 116.373 269.2 102.029 269.2 82.5625C269.2 63.096 282.873 48.7523 303.041 48.7523C323.21 48.7523 336.883 63.096 336.883 82.5625C336.883 102.029 323.21 116.373 303.041 116.373Z" fill="white"/>
<path d="M410.271 126.96C437.104 126.96 455.905 108.176 455.905 82.221C455.905 56.2657 436.934 38.1653 412.151 38.1653C396.084 38.1653 382.924 45.6787 376.6 58.4855V3.50134H365.148V82.0502C365.148 109.201 384.12 126.96 410.271 126.96ZM410.441 116.373C390.102 116.373 376.6 102.029 376.6 82.5625C376.6 63.096 390.102 48.7523 410.441 48.7523C430.61 48.7523 444.283 63.096 444.283 82.5625C444.283 102.029 430.61 116.373 410.441 116.373Z" fill="white"/>
<path d="M469.301 124.74H480.752V80.6841C480.752 59.8516 492.717 48.7523 511.005 48.7523C529.293 48.7523 541.257 59.8516 541.257 80.6841V124.74H552.708V80.6841C552.708 52.6798 535.959 38.1653 511.005 38.1653C486.051 38.1653 469.301 52.6798 469.301 80.6841V124.74Z" fill="white"/>
<path d="M578.335 23.9923C583.292 23.9923 587.052 20.2357 587.052 15.2837C587.052 10.3317 583.292 6.57499 578.335 6.57499C573.379 6.57499 569.619 10.3317 569.619 15.2837C569.619 20.2357 573.379 23.9923 578.335 23.9923ZM572.695 124.74H584.147V40.3852H572.695V124.74Z" fill="white"/>
<path d="M603.998 124.74H615.45V80.6841C615.45 59.8516 627.414 48.7523 645.702 48.7523C663.99 48.7523 675.954 59.8516 675.954 80.6841V124.74H687.406V80.6841C687.406 52.6798 670.656 38.1653 645.702 38.1653C620.748 38.1653 603.998 52.6798 603.998 80.6841V124.74Z" fill="white"/>
<path d="M746.191 126.96C765.846 126.96 781.229 116.714 787.724 101.175H775.247C769.777 110.908 759.522 116.373 746.191 116.373C727.219 116.373 714.058 103.907 712.52 86.3192H791.313V82.5625C791.313 56.9487 772.854 38.1653 746.191 38.1653C719.528 38.1653 700.727 56.9487 700.727 82.5625C700.727 108.176 719.528 126.96 746.191 126.96ZM712.862 76.0736C715.426 59.5101 728.586 48.7523 746.191 48.7523C763.282 48.7523 776.614 58.9978 779.349 76.0736H712.862Z" fill="white"/>
</svg>
